<svg data-v-423bf9ae="" xmlns="http://www.w3.org/2000/svg" viewBox="0 0 386 90" class="iconLeft"><!----><!----><!----><g data-v-423bf9ae="" id="e5b8a93a-c415-4268-a0a2-64d4ca8f9fac" fill="white" transform="matrix(5.6980053264473165,0,0,5.6980053264473165,151.06769707767975,-7.735042022120943)"><path d="M3.30 14.52C4.75 14.52 5.64 13.82 5.64 12.60C5.64 11.35 4.84 10.84 3.61 10.64L3.00 10.54C1.79 10.35 1.22 9.94 1.22 8.89C1.22 7.90 2.00 7.36 3.18 7.36C4.30 7.36 4.84 7.83 5.28 8.32L5.50 8.12C5.04 7.60 4.40 7.10 3.16 7.10C1.90 7.10 0.92 7.71 0.92 8.90C0.92 10.14 1.69 10.63 2.94 10.82L3.56 10.92C4.73 11.10 5.35 11.55 5.35 12.61C5.35 13.66 4.63 14.25 3.30 14.25C2.27 14.25 1.58 13.93 0.94 13.05L0.69 13.22C1.34 14.14 2.17 14.52 3.30 14.52ZM12.49 14.35L12.78 14.35L12.78 7.27L12.49 7.27L12.49 12.33C12.49 13.62 11.42 14.25 10.26 14.25C8.88 14.25 8.09 13.48 8.09 11.76L8.09 7.27L7.80 7.27L7.80 11.82C7.80 13.58 8.65 14.52 10.23 14.52C11.51 14.52 12.19 13.92 12.45 13.29L12.49 13.29ZM15.72 14.35L16.02 14.35L16.02 13.26L16.06 13.26C16.35 13.87 17.11 14.52 18.35 14.52C20.22 14.52 21.32 13.27 21.32 10.81C21.32 8.34 20.22 7.10 18.35 7.10C17.11 7.10 16.35 7.74 16.06 8.36L16.02 8.36L16.02 3.99L15.72 3.99ZM18.35 14.25C17.12 14.25 16.02 13.48 16.02 12.35L16.02 9.27C16.02 8.13 17.12 7.36 18.35 7.36C20.05 7.36 21 8.55 21 10.47L21 11.14C21 13.06 20.05 14.25 18.35 14.25ZM23.93 14.35L23.93 9.28C23.93 7.99 24.99 7.36 26.15 7.36C27.54 7.36 28.32 8.13 28.32 9.86L28.32 14.35L28.62 14.35L28.62 9.80C28.62 8.04 27.76 7.10 26.18 7.10C24.91 7.10 24.22 7.70 23.97 8.33L23.93 8.33L23.93 7.27L23.63 7.27L23.63 14.35ZM33.75 14.52C35.11 14.52 36.04 13.78 36.46 12.61L36.20 12.52C35.77 13.66 34.94 14.25 33.75 14.25C32.07 14.25 31.11 13.05 31.11 11.14L31.11 10.77L36.57 10.77L36.57 10.63C36.57 8.46 35.41 7.10 33.70 7.10C31.88 7.10 30.79 8.39 30.79 10.81C30.79 13.26 31.91 14.52 33.75 14.52ZM33.70 7.36C35.22 7.36 36.25 8.58 36.25 10.44L36.25 10.50L31.11 10.50L31.11 10.47C31.11 8.57 32.05 7.36 33.70 7.36ZM41.03 14.35L41.03 14.08L39.45 14.08L39.45 7.53L41.15 7.53L41.15 7.27L39.45 7.27L39.45 5.25L39.16 5.25L39.16 6.92C39.16 7.17 39.09 7.27 38.84 7.27L37.83 7.27L37.83 7.53L39.16 7.53L39.16 13.94C39.16 14.22 39.28 14.35 39.56 14.35Z"></path></g><!----><g data-v-423bf9ae="" id="15af3e4e-e60f-4ce4-9c07-ece8c09e6891" transform="matrix(1.3499932537415984,0,0,1.3499932537415984,0.500337312920081,-21.833337496025536)" stroke="none" fill="white"><path d="M100 46.667c0-7.362-5.971-13.333-13.334-13.333l-.021.001c-.438-9.274-8.465-16.668-18.312-16.668-8.635 0-15.871 5.688-17.812 13.342a9.155 9.155 0 0 0-6.095 2.604 25.764 25.764 0 0 0-6.928-.946c-14.244 0-25.832 11.59-25.832 25.834 0 .289.008.576.018.863C5.17 58.786 0 64.216 0 70.834c0 6.611 5.16 12.039 11.666 12.469v.031h66.666C84.768 83.334 90 78.102 90 71.668c0-5.895-4.395-10.775-10.076-11.557l-.014-.11h6.756c7.363 0 13.334-5.97 13.334-13.334zM86.666 71.668c0 4.579-3.713 8.309-8.287 8.333H12.24l-.354-.022c-4.799-.316-8.555-4.334-8.555-9.145 0-4.816 3.764-8.833 8.564-9.145l3.223-.209-.105-3.229c-.01-.25-.016-.501-.016-.753 0-12.406 10.094-22.5 22.5-22.5 8.283 0 15.881 4.548 19.823 11.869l1.154 2.144 2.396-.447a13.28 13.28 0 0 1 11.457 3.275 13.291 13.291 0 0 1 4.274 8.581l.246 2.637 2.619.357c4.106.565 7.2 4.111 7.2 8.254z"></path></g><!----></svg>